<?xml version="1.0" encoding="UTF-8" standalone="no"?>
<!-- Created with Inkscape (http://www.inkscape.org/) -->

<svg
   xmlns:dc="http://purl.org/dc/elements/1.1/"
   xmlns:cc="http://creativecommons.org/ns#"
   xmlns:rdf="http://www.w3.org/1999/02/22-rdf-syntax-ns#"
   xmlns:svg="http://www.w3.org/2000/svg"
   xmlns="http://www.w3.org/2000/svg"
   xmlns:sodipodi="http://sodipodi.sourceforge.net/DTD/sodipodi-0.dtd"
   xmlns:inkscape="http://www.inkscape.org/namespaces/inkscape"
   sodipodi:docname="Simultime_logo_X.svg"
   viewBox="0 0 314.53967 254.33912"
   height="254.33913"
   width="314.53967"
   xml:space="preserve"
   id="svg815"
   version="1.1"
   inkscape:version="0.92.3 (2405546, 2018-03-11)"><sodipodi:namedview
     inkscape:current-layer="g823"
     inkscape:window-maximized="1"
     inkscape:window-y="-9"
     inkscape:window-x="-9"
     inkscape:cy="-104.80871"
     inkscape:cx="-246.72007"
     inkscape:zoom="1.0180151"
     showgrid="false"
     id="namedview817"
     inkscape:window-height="1001"
     inkscape:window-width="1920"
     inkscape:pageshadow="2"
     inkscape:pageopacity="0"
     guidetolerance="10"
     gridtolerance="10"
     objecttolerance="10"
     borderopacity="1"
     bordercolor="#666666"
     pagecolor="#ffffff" /><metadata
     id="metadata821"><rdf:RDF><cc:Work
         rdf:about=""><dc:format>image/svg+xml</dc:format><dc:type
           rdf:resource="http://purl.org/dc/dcmitype/StillImage" /><dc:title></dc:title></cc:Work></rdf:RDF></metadata><defs
     id="defs819"><clipPath
       clipPathUnits="userSpaceOnUse"
       id="clipPath831"><path
         d="M 0,0 H 841.89 V 595.276 H 0 Z"
         id="path829"
         inkscape:connector-curvature="0" /></clipPath></defs><g
     id="g823"
     inkscape:groupmode="layer"
     inkscape:label="Simultime_logo_X"
     transform="matrix(1.3333333,0,0,-1.3333333,-403.99004,524.01979)"><g
       id="g825"><g
         id="g827"
         clip-path="url(#clipPath831)"><g
           id="g833"
           transform="translate(315.6881,207.6895)"><path
             d="m 0,0 c -0.068,-1.518 -0.674,-2.802 -1.819,-3.852 -1.153,-1.052 -2.527,-1.577 -4.121,-1.577 -1.381,0 -2.618,0.297 -3.711,0.891 -1.316,0.71 -2.149,1.745 -2.506,3.101 -0.101,0.399 -0.05,0.777 0.152,1.132 0.211,0.357 0.517,0.586 0.915,0.686 0.399,0.102 0.776,0.052 1.133,-0.153 0.355,-0.211 0.584,-0.516 0.686,-0.914 0.153,-0.568 0.569,-1.012 1.247,-1.335 0.61,-0.28 1.304,-0.42 2.084,-0.42 0.797,0 1.48,0.249 2.048,0.75 0.577,0.492 0.882,1.102 0.916,1.831 0.016,0.442 -0.14,0.836 -0.471,1.182 -0.525,0.56 -1.407,0.849 -2.644,0.866 h -0.013 -0.025 -0.026 c -2.077,0.033 -3.666,0.631 -4.768,1.792 -0.907,0.967 -1.331,2.09 -1.272,3.37 0.067,1.525 0.673,2.814 1.819,3.866 1.144,1.05 2.518,1.577 4.119,1.577 1.381,0 2.62,-0.296 3.713,-0.891 1.314,-0.712 2.148,-1.746 2.506,-3.103 0.1,-0.397 0.045,-0.775 -0.167,-1.131 -0.202,-0.356 -0.504,-0.585 -0.902,-0.687 -0.399,-0.1 -0.775,-0.05 -1.132,0.153 -0.357,0.211 -0.586,0.518 -0.686,0.916 -0.153,0.567 -0.572,1.012 -1.26,1.334 -0.601,0.281 -1.293,0.42 -2.072,0.42 -0.797,0 -1.483,-0.25 -2.058,-0.75 C -8.886,8.555 -9.186,7.945 -9.22,7.224 -9.236,6.782 -9.08,6.383 -8.749,6.028 -8.224,5.476 -7.342,5.193 -6.104,5.176 H -6.04 C -3.965,5.141 -2.374,4.539 -1.272,3.37 -0.364,2.412 0.059,1.289 0,0"
             style="opacity:1;fill:#a99d9f;fill-opacity:1;fill-rule:nonzero;stroke:none"
             id="path835"
             inkscape:connector-curvature="0" /></g><g
           id="g837"
           transform="translate(333.6046,202.2608)"><path
             d="M 0,0 C -0.416,0 -0.768,0.147 -1.057,0.445 -1.354,0.733 -1.501,1.084 -1.501,1.5 v 15.171 c 0,0.414 0.147,0.765 0.444,1.055 0.289,0.296 0.641,0.443 1.057,0.443 0.414,0 0.766,-0.147 1.055,-0.443 0.297,-0.29 0.444,-0.641 0.444,-1.055 L 1.499,1.5 C 1.499,1.084 1.352,0.733 1.055,0.445 0.766,0.147 0.414,0 0,0"
             style="opacity:1;fill:#a99d9f;fill-opacity:1;fill-rule:nonzero;stroke:none"
             id="path839"
             inkscape:connector-curvature="0" /></g><g
           id="g841"
           transform="translate(369.1051,220.4946)"><path
             d="m 0,0 c 0.322,-0.092 0.585,-0.276 0.788,-0.546 0.205,-0.263 0.305,-0.565 0.305,-0.903 v -15.284 c 0,-0.416 -0.144,-0.768 -0.431,-1.055 -0.297,-0.298 -0.653,-0.446 -1.069,-0.446 -0.414,0 -0.772,0.148 -1.068,0.446 -0.287,0.287 -0.431,0.639 -0.431,1.055 v 9.892 l -4.744,-7.832 v -0.014 l -0.013,-0.012 -0.012,-0.012 -0.014,-0.014 c -0.024,-0.042 -0.041,-0.071 -0.05,-0.088 l -0.038,-0.052 c -0.034,-0.033 -0.055,-0.054 -0.064,-0.063 -0.007,-0.008 -0.024,-0.026 -0.05,-0.052 -0.026,-0.024 -0.044,-0.041 -0.05,-0.05 -0.018,-0.017 -0.044,-0.038 -0.079,-0.062 l -0.036,-0.04 c -0.026,-0.016 -0.055,-0.033 -0.09,-0.051 0,-0.008 -0.003,-0.012 -0.012,-0.012 l -0.012,-0.013 h -0.014 c -0.017,-0.016 -0.047,-0.033 -0.088,-0.051 -0.035,-0.017 -0.047,-0.024 -0.039,-0.024 -0.008,0 -0.034,-0.01 -0.076,-0.026 -0.195,-0.085 -0.4,-0.123 -0.61,-0.114 h -0.026 c 0.016,0 0,0.003 -0.05,0.012 -0.111,0.009 -0.222,0.029 -0.331,0.064 -0.043,0.009 -0.061,0.012 -0.052,0.012 0.017,-0.009 0,-0.003 -0.05,0.012 -0.044,0.017 -0.073,0.03 -0.089,0.04 0.009,0 0,0.007 -0.026,0.024 -0.043,0.018 -0.076,0.035 -0.102,0.051 h -0.012 l -0.012,0.013 -0.014,0.012 c -0.033,0.018 -0.062,0.039 -0.088,0.064 0,-0.008 -0.012,0 -0.039,0.027 -0.034,0.024 -0.06,0.045 -0.076,0.062 -0.008,0.009 -0.026,0.026 -0.052,0.05 -0.024,0.026 -0.041,0.044 -0.05,0.052 -0.009,0.016 -0.029,0.038 -0.064,0.063 -0.017,0.026 -0.026,0.043 -0.026,0.052 -0.016,0.017 -0.036,0.046 -0.062,0.088 l -0.014,0.014 c 0,0.007 -0.004,0.012 -0.012,0.012 v 0.012 c 0,0.009 -0.004,0.014 -0.012,0.014 l -4.731,7.832 v -9.892 c 0,-0.416 -0.149,-0.768 -0.445,-1.055 -0.296,-0.298 -0.654,-0.446 -1.067,-0.446 -0.416,0 -0.768,0.148 -1.056,0.446 -0.298,0.287 -0.445,0.639 -0.445,1.055 v 15.284 c 0,0.338 0.102,0.64 0.305,0.903 0.203,0.27 0.469,0.454 0.8,0.546 0.323,0.085 0.642,0.067 0.955,-0.05 0.314,-0.129 0.558,-0.335 0.736,-0.624 l 6.258,-10.338 6.255,10.338 c 0.17,0.289 0.412,0.495 0.726,0.624 0.312,0.117 0.469,0.178 0.469,0.178 0,0 0.167,-0.043 0.496,-0.128"
             style="opacity:1;fill:#a99d9f;fill-opacity:1;fill-rule:nonzero;stroke:none"
             id="path843"
             inkscape:connector-curvature="0" /></g><g
           id="g845"
           transform="translate(398.7208,220.4946)"><path
             d="m 0,0 c 0.406,0 0.753,-0.144 1.044,-0.432 0.287,-0.289 0.429,-0.635 0.429,-1.043 v -10.249 c 0,-1.797 -0.634,-3.332 -1.906,-4.602 -1.272,-1.272 -2.804,-1.908 -4.592,-1.908 -1.795,0 -3.33,0.636 -4.602,1.908 -1.272,1.27 -1.906,2.805 -1.906,4.602 v 10.249 c 0,0.408 0.142,0.754 0.433,1.043 0.288,0.288 0.635,0.432 1.04,0.432 0.409,0 0.755,-0.144 1.043,-0.432 0.288,-0.289 0.433,-0.635 0.433,-1.043 v -10.249 c 0,-0.982 0.347,-1.823 1.044,-2.518 0.692,-0.694 1.535,-1.041 2.515,-1.041 0.978,0 1.809,0.347 2.506,1.041 0.696,0.695 1.043,1.536 1.043,2.518 v 10.249 c 0,0.408 0.146,0.754 0.433,1.043 C -0.755,-0.144 -0.409,0 0,0"
             style="opacity:1;fill:#a99d9f;fill-opacity:1;fill-rule:nonzero;stroke:none"
             id="path847"
             inkscape:connector-curvature="0" /></g><g
           id="g849"
           transform="translate(418.7965,220.4946)"><path
             d="m 0,0 c 0.416,0 0.77,-0.149 1.057,-0.445 0.298,-0.288 0.444,-0.64 0.444,-1.056 v -13.732 h 6.727 c 0.415,0 0.772,-0.149 1.07,-0.445 0.284,-0.288 0.43,-0.641 0.43,-1.055 0,-0.416 -0.146,-0.768 -0.43,-1.055 C 9,-18.086 8.643,-18.234 8.228,-18.234 H 0 c -0.412,0 -0.766,0.148 -1.054,0.446 -0.298,0.287 -0.443,0.639 -0.443,1.055 v 15.232 c 0,0.416 0.145,0.768 0.443,1.056 C -0.766,-0.149 -0.412,0 0,0"
             style="opacity:1;fill:#a99d9f;fill-opacity:1;fill-rule:nonzero;stroke:none"
             id="path851"
             inkscape:connector-curvature="0" /></g><g
           id="g853"
           transform="translate(447.7643,217.5195)"><path
             d="m 0,0 h -3.777 c -0.416,0 -0.773,0.147 -1.068,0.445 -0.287,0.288 -0.432,0.64 -0.432,1.056 0,0.414 0.145,0.767 0.432,1.055 0.295,0.296 0.652,0.445 1.068,0.445 H 6.789 C 7.194,3.001 7.548,2.852 7.846,2.556 8.134,2.268 8.279,1.915 8.279,1.501 8.279,1.085 8.134,0.733 7.846,0.445 7.548,0.147 7.194,0 6.789,0 H 3.002 v -13.758 c 0,-0.416 -0.149,-0.771 -0.447,-1.069 -0.288,-0.288 -0.638,-0.432 -1.054,-0.432 -0.416,0 -0.77,0.144 -1.058,0.432 C 0.149,-14.529 0,-14.174 0,-13.758 Z"
             style="opacity:1;fill:#a99d9f;fill-opacity:1;fill-rule:nonzero;stroke:none"
             id="path855"
             inkscape:connector-curvature="0" /></g><g
           id="g857"
           transform="translate(472.8131,202.2608)"><path
             d="M 0,0 C -0.416,0 -0.766,0.147 -1.057,0.445 -1.352,0.733 -1.5,1.084 -1.5,1.5 v 15.171 c 0,0.414 0.148,0.765 0.443,1.055 0.291,0.296 0.641,0.443 1.057,0.443 0.416,0 0.77,-0.147 1.057,-0.443 0.295,-0.29 0.444,-0.641 0.444,-1.055 V 1.5 C 1.501,1.084 1.352,0.733 1.057,0.445 0.77,0.147 0.416,0 0,0"
             style="opacity:1;fill:#a99d9f;fill-opacity:1;fill-rule:nonzero;stroke:none"
             id="path859"
             inkscape:connector-curvature="0" /></g><g
           id="g861"
           transform="translate(508.317,220.4946)"><path
             d="m 0,0 c 0.322,-0.092 0.582,-0.276 0.787,-0.546 0.204,-0.263 0.305,-0.565 0.305,-0.903 v -15.284 c 0,-0.416 -0.146,-0.768 -0.43,-1.055 -0.298,-0.298 -0.655,-0.446 -1.071,-0.446 -0.415,0 -0.773,0.148 -1.068,0.446 -0.287,0.287 -0.432,0.639 -0.432,1.055 v 9.892 l -4.741,-7.832 v -0.014 l -0.014,-0.012 -0.014,-0.012 -0.013,-0.014 c -0.025,-0.042 -0.042,-0.071 -0.049,-0.088 l -0.038,-0.052 c -0.036,-0.033 -0.056,-0.054 -0.063,-0.063 -0.011,-0.008 -0.027,-0.026 -0.052,-0.052 -0.028,-0.024 -0.042,-0.041 -0.051,-0.05 -0.018,-0.017 -0.042,-0.038 -0.077,-0.062 l -0.038,-0.04 c -0.024,-0.016 -0.055,-0.033 -0.087,-0.051 0,-0.008 -0.006,-0.012 -0.014,-0.012 l -0.014,-0.013 h -0.013 c -0.014,-0.016 -0.045,-0.033 -0.086,-0.051 -0.036,-0.017 -0.049,-0.024 -0.039,-0.024 -0.01,0 -0.035,-0.01 -0.077,-0.026 -0.193,-0.085 -0.398,-0.123 -0.609,-0.114 h -0.028 c 0.017,0 0,0.003 -0.048,0.012 -0.111,0.009 -0.222,0.029 -0.329,0.064 -0.046,0.009 -0.063,0.012 -0.056,0.012 0.02,-0.009 0,-0.003 -0.049,0.012 -0.041,0.017 -0.072,0.03 -0.09,0.04 0.01,0 0,0.007 -0.024,0.024 -0.042,0.018 -0.076,0.035 -0.101,0.051 h -0.013 l -0.014,0.013 -0.011,0.012 c -0.034,0.018 -0.065,0.039 -0.09,0.064 0,-0.008 -0.013,0 -0.038,0.027 -0.035,0.024 -0.058,0.045 -0.076,0.062 -0.011,0.009 -0.028,0.026 -0.053,0.05 -0.023,0.026 -0.041,0.044 -0.051,0.052 -0.007,0.016 -0.028,0.038 -0.063,0.063 -0.016,0.026 -0.024,0.043 -0.024,0.052 -0.017,0.017 -0.037,0.046 -0.066,0.088 l -0.01,0.014 c 0,0.007 -0.003,0.012 -0.014,0.012 v 0.012 c 0,0.009 -0.003,0.014 -0.01,0.014 l -4.734,7.832 v -9.892 c 0,-0.416 -0.146,-0.768 -0.444,-1.055 -0.297,-0.298 -0.651,-0.446 -1.067,-0.446 -0.416,0 -0.766,0.148 -1.057,0.446 -0.295,0.287 -0.444,0.639 -0.444,1.055 v 15.284 c 0,0.338 0.101,0.64 0.306,0.903 0.204,0.27 0.467,0.454 0.799,0.546 0.323,0.085 0.642,0.067 0.958,-0.05 0.311,-0.129 0.557,-0.335 0.734,-0.624 l 6.256,-10.338 6.258,10.338 c 0.167,0.289 0.409,0.495 0.724,0.624 0.312,0.117 0.468,0.178 0.468,0.178 0,0 0.166,-0.043 0.499,-0.128"
             style="opacity:1;fill:#a99d9f;fill-opacity:1;fill-rule:nonzero;stroke:none"
             id="path863"
             inkscape:connector-curvature="0" /></g><g
           id="g865"
           transform="translate(537.3961,205.2739)"><path
             d="M 0,0 C 0.416,0 0.766,-0.149 1.057,-0.445 1.352,-0.742 1.501,-1.099 1.501,-1.513 1.501,-1.929 1.352,-2.28 1.057,-2.568 0.766,-2.866 0.416,-3.013 0,-3.013 h -9.208 c -0.412,0 -0.766,0.147 -1.054,0.445 -0.298,0.288 -0.446,0.639 -0.446,1.055 v 15.247 c 0,0.423 0.148,0.78 0.446,1.067 0.288,0.297 0.642,0.446 1.054,0.446 h 0.014 L 0,15.221 c 0.416,0 0.772,-0.15 1.067,-0.446 0.287,-0.296 0.434,-0.651 0.434,-1.067 0,-0.416 -0.149,-0.767 -0.444,-1.056 C 0.766,12.355 0.416,12.207 0,12.207 h -0.014 l -7.679,0.026 V 7.617 h 5.545 c 0.416,0 0.768,-0.144 1.067,-0.433 0.298,-0.296 0.443,-0.653 0.443,-1.067 0,-0.416 -0.145,-0.771 -0.443,-1.07 C -1.38,4.76 -1.732,4.616 -2.148,4.616 H -7.693 V 0 Z"
             style="opacity:1;fill:#a99d9f;fill-opacity:1;fill-rule:nonzero;stroke:none"
             id="path867"
             inkscape:connector-curvature="0" /></g><g
           id="g869"
           transform="translate(502.7477,342.731)"><path
             d="m 0,0 c -10.565,10.564 -27.686,10.561 -38.252,-0.002 -0.069,-0.073 -0.142,-0.147 -0.211,-0.216 h -0.007 l -63.415,-63.419 v -0.002 c -0.076,-0.073 -0.145,-0.149 -0.215,-0.22 -23.379,-23.378 -61.743,-23.695 -84.797,0.002 -1.201,1.239 -2.114,2.213 -3.231,3.486 l -0.006,-0.003 c -0.06,0.074 -0.119,0.145 -0.188,0.215 -1.846,1.845 -4.842,1.845 -6.687,0 -1.83,-1.83 -1.845,-4.788 -0.045,-6.636 l -0.006,-0.006 c 1.106,-1.277 2.267,-2.526 3.48,-3.739 27.107,-27.111 71.058,-27.111 98.165,-0.004 0.073,0.073 0.142,0.146 0.215,0.22 h -0.004 l 62.854,62.847 0.565,0.572 0.468,0.468 c 6.865,6.863 17.774,6.614 24.629,-0.25 6.869,-6.861 6.869,-18.022 0.003,-24.885 -4.446,-4.45 -10.698,-5.996 -16.419,-4.677 -1.632,0.525 -3.494,0.14 -4.786,-1.154 -1.85,-1.846 -1.854,-4.84 -0.006,-6.688 0.637,-0.635 1.41,-1.047 2.224,-1.241 l -0.004,-0.019 c 8.906,-2.216 18.714,0.13 25.683,7.092 C 10.57,-27.694 10.57,-10.565 0,0"
             style="opacity:1;fill:#00c0f3;fill-opacity:1;fill-rule:nonzero;stroke:none"
             id="path871"
             inkscape:connector-curvature="0" /></g><g
           id="g873"
           transform="translate(512.777,352.7271)"><path
             d="m 0,0 c -16.094,16.094 -42.186,16.092 -58.275,0.002 -0.074,-0.077 -0.146,-0.148 -0.219,-0.219 h -0.003 l -63.419,-63.414 v -0.009 c -0.069,-0.068 -0.142,-0.141 -0.215,-0.214 -17.864,-17.864 -46.929,-17.866 -64.796,0 -10.719,10.714 -15,25.461 -12.865,39.403 0,0 -0.002,0 -0.005,0.002 0.232,1.443 -0.206,2.975 -1.319,4.091 -1.847,1.847 -4.84,1.847 -6.688,0 -0.782,-0.782 -1.229,-1.768 -1.35,-2.783 h -0.002 c -2.542,-16.776 2.625,-34.48 15.545,-47.399 21.586,-21.586 56.586,-21.583 78.165,0.003 0.073,0.073 0.149,0.142 0.218,0.215 v 0.004 L -51.809,-6.9 c 0.07,0.069 0.142,0.144 0.218,0.217 12.376,12.378 32.524,12.378 44.906,-0.004 12.379,-12.382 12.382,-32.528 0,-44.907 -0.973,-0.977 -2.003,-1.871 -3.067,-2.695 -0.412,-0.211 -0.8,-0.493 -1.147,-0.842 -1.847,-1.845 -1.847,-4.839 0,-6.685 1.719,-1.72 4.432,-1.834 6.291,-0.352 l 0.044,-0.057 c 1.59,1.187 3.119,2.499 4.568,3.946 C 16.094,-42.187 16.094,-16.092 0,0"
             style="opacity:1;fill:#7cc578;fill-opacity:1;fill-rule:nonzero;stroke:none"
             id="path875"
             inkscape:connector-curvature="0" /></g><g
           id="g877"
           transform="translate(532.7037,372.6866)"><path
             d="m 0,0 c -27.107,27.105 -71.06,27.104 -98.156,-0.001 -0.08,-0.075 -0.146,-0.148 -0.222,-0.217 l -62.847,-62.845 -0.57,-0.576 -0.468,-0.464 c -6.863,-6.863 -17.773,-6.617 -24.633,0.248 -6.865,6.862 -6.865,18.024 -0.001,24.887 4.569,4.568 11.048,6.079 16.892,4.561 l 0.004,0.005 c 1.502,-0.305 3.122,0.123 4.29,1.289 1.844,1.845 1.844,4.838 0,6.687 -0.707,0.707 -1.584,1.14 -2.497,1.305 -8.827,2.088 -18.492,-0.277 -25.374,-7.162 -10.566,-10.564 -10.563,-27.694 -0.004,-38.259 10.57,-10.564 27.698,-10.566 38.263,-0.001 0.074,0.07 0.138,0.148 0.21,0.22 l -0.002,-0.004 63.422,63.422 c 0.072,0.071 0.149,0.147 0.214,0.218 23.382,23.374 61.738,23.701 84.791,0 1.206,-1.235 2.117,-2.204 3.229,-3.486 l 0.008,0.004 c 0.054,-0.063 0.107,-0.125 0.169,-0.184 1.847,-1.849 4.838,-1.849 6.681,-0.002 1.824,1.821 1.844,4.758 0.07,6.609 l 0.007,0.005 C 2.37,-2.462 1.213,-1.215 0,0"
             style="opacity:1;fill:#ef4b62;fill-opacity:1;fill-rule:nonzero;stroke:none"
             id="path879"
             inkscape:connector-curvature="0" /></g><g
           id="g881"
           transform="translate(444.5524,362.6729)"><path
             d="m 0,0 c -0.069,-0.069 -0.143,-0.146 -0.219,-0.218 l -63.416,-63.42 c -0.075,-0.072 -0.142,-0.139 -0.215,-0.215 -12.382,-12.379 -32.525,-12.382 -44.906,0 -12.384,12.382 -12.384,32.527 -0.003,44.907 1.173,1.173 2.42,2.23 3.716,3.182 0.16,0.124 0.315,0.251 0.458,0.395 1.847,1.847 1.847,4.839 0,6.684 -1.719,1.721 -4.429,1.837 -6.283,0.357 l -0.007,0.012 c -1.593,-1.188 -3.124,-2.5 -4.569,-3.945 -16.091,-16.09 -16.091,-42.185 0.003,-58.277 16.092,-16.099 42.184,-16.092 58.274,-0.002 0.073,0.075 0.146,0.144 0.218,0.213 v 0.007 L 6.47,-6.905 h 0.004 c 0.069,0.071 0.138,0.144 0.211,0.217 17.864,17.868 46.933,17.866 64.8,0 10.567,-10.565 14.878,-25.049 12.948,-38.817 -0.451,-1.596 -0.052,-3.379 1.203,-4.635 1.839,-1.846 4.838,-1.846 6.681,10e-4 0.773,0.768 1.216,1.74 1.344,2.743 0.018,-0.003 0.038,-0.003 0.056,-0.008 2.54,16.778 -2.623,34.485 -15.546,47.401 C 56.584,21.588 21.583,21.583 0,0"
             style="opacity:1;fill:#ffcc6d;fill-opacity:1;fill-rule:nonzero;stroke:none"
             id="path883"
             inkscape:connector-curvature="0" /></g></g></g></g></svg>